<svg width="11" height="11" viewBox="0 0 11 11" fill="none" xmlns="http://www.w3.org/2000/svg">
<path d="M7.81296 2.67919L7.81295 2.73649L7.87025 2.7365L10.3916 2.73683L10.3908 9.12621C10.3907 9.45297 10.2609 9.76632 10.0298 9.99734C9.79872 10.2284 9.48533 10.3581 9.15857 10.3581L1.42255 10.357C1.0958 10.357 0.78244 10.2272 0.55142 9.99608C0.3204 9.765 0.190639 9.45161 0.190682 9.12485L0.191535 2.73547L2.7129 2.73581L2.77021 2.73582L2.77022 2.67851C2.77031 2.0098 3.03603 1.36852 3.50895 0.895733C3.98186 0.422948 4.62321 0.15739 5.29192 0.157479C5.96063 0.157569 6.60192 0.423298 7.0747 0.896209C7.54749 1.36912 7.81304 2.01048 7.81296 2.67919ZM7.01069 2.73638L7.068 2.73639L7.068 2.67909C7.06807 2.20795 6.88097 1.75609 6.54787 1.4229C6.21477 1.08971 5.76296 0.902492 5.29182 0.902429C4.82069 0.902367 4.36882 1.08946 4.03563 1.42256C3.70245 1.75566 3.51523 2.20748 3.51517 2.67861L3.51516 2.73592L3.57246 2.73592L7.01069 2.73638ZM0.993689 3.48053L0.936385 3.48052L0.936378 3.53783L0.935632 9.12495C0.935615 9.25413 0.986916 9.37803 1.07825 9.46939C1.16958 9.56075 1.29347 9.61208 1.42265 9.6121L9.15867 9.61313C9.28785 9.61315 9.41175 9.56185 9.50311 9.47051C9.59447 9.37918 9.6458 9.2553 9.64582 9.12611L9.64656 3.53899L9.64657 3.48168L9.58927 3.48168L7.87015 3.48145L7.81285 3.48144L7.81284 3.53874L7.81273 4.341L7.06778 4.3409L7.06789 3.53864L7.0679 3.48134L7.01059 3.48133L3.57236 3.48087L3.51506 3.48087L3.51505 3.53817L3.51494 4.34042L2.76999 4.34032L2.7701 3.53807L2.77011 3.48077L2.7128 3.48076L0.993689 3.48053Z" fill="#BEAFC3" stroke="#160524" stroke-width="0.114608"/>
</svg>
