<svg width="26" height="26" viewBox="0 0 26 26" fill="none" xmlns="http://www.w3.org/2000/svg">
<rect x="0.742719" y="0.572934" width="24.6407" height="24.6407" rx="2.00564" stroke="white" stroke-opacity="0.1" stroke-width="0.573039"/>
<g clip-path="url(#clip0_5_671)">
<path d="M17.2279 9.07334C16.4659 8.71795 15.6407 8.45998 14.7812 8.31087C14.7736 8.31063 14.7661 8.31204 14.7592 8.31501C14.7523 8.31798 14.7461 8.32244 14.7411 8.32806C14.6379 8.51715 14.5175 8.76354 14.4373 8.95263C13.5256 8.81498 12.5984 8.81486 11.6867 8.95226C11.6065 8.75742 11.4862 8.51673 11.3773 8.32761C11.3716 8.31615 11.3544 8.31042 11.3372 8.31041C10.4776 8.45929 9.65815 8.71705 8.89023 9.07223C8.8845 9.07223 8.87877 9.07796 8.87304 9.08369C7.31407 11.4157 6.88398 13.6849 7.09571 15.9313C7.09571 15.9427 7.10144 15.9542 7.1129 15.9599C8.14426 16.7165 9.13556 17.175 10.1154 17.4789C10.1326 17.4846 10.1498 17.4789 10.1555 17.4674C10.3848 17.1523 10.5911 16.8199 10.7688 16.4704C10.7803 16.4475 10.7688 16.4246 10.7459 16.4188C10.4193 16.2927 10.1099 16.1437 9.80618 15.9717C9.78326 15.9603 9.78326 15.9259 9.80045 15.9087C9.86349 15.8629 9.92653 15.8113 9.98957 15.7655C10.001 15.754 10.0182 15.754 10.0297 15.7597C12.0008 16.6597 14.1268 16.66 16.0752 15.7605C16.0867 15.7548 16.1039 15.7548 16.1154 15.7663C16.1784 15.8179 16.2414 15.8637 16.3044 15.9153C16.3274 15.9325 16.3274 15.9669 16.2987 15.9783C16.0007 16.1559 15.6855 16.2991 15.3589 16.4252C15.3359 16.4309 15.3302 16.4596 15.3359 16.4767C15.5193 16.8263 15.7255 17.1587 15.9489 17.4739C15.9661 17.4796 15.9833 17.4854 16.0005 17.4797C16.9862 17.1761 17.9776 16.7178 19.0092 15.9615C19.0206 15.9558 19.0264 15.9443 19.0264 15.9329C19.2789 13.337 18.6087 11.0849 17.2509 9.0848C17.2451 9.07907 17.2394 9.07334 17.2279 9.07334ZM11.067 14.5622C10.4768 14.5621 9.98408 14.0177 9.98417 13.3472C9.98426 12.6768 10.4657 12.1325 11.0674 12.1325C11.6748 12.1326 12.1561 12.6828 12.1503 13.3475C12.1502 14.018 11.6687 14.5623 11.067 14.5622ZM15.0611 14.5628C14.4709 14.5627 13.9782 14.0182 13.9782 13.3478C13.9783 12.6773 14.4598 12.133 15.0615 12.1331C15.6689 12.1332 16.1502 12.6833 16.1443 13.3481C16.1442 14.0185 15.6685 14.5628 15.0611 14.5628Z" fill="white"/>
</g>
<defs>
<clipPath id="clip0_5_671">
<rect width="13.7529" height="13.7529" fill="white" transform="translate(6.18588 6.01758)"/>
</clipPath>
</defs>
</svg>
