<svg width="18" height="19" viewBox="0 0 18 19" fill="none" xmlns="http://www.w3.org/2000/svg">
<path d="M4.45444 13.1705L8.1545 15.1619L8.15418 17.537L1.95746 17.5362C0.974839 17.536 0.187074 16.7588 0.187203 15.7895L0.189068 1.8183C0.189129 1.35513 0.375722 0.910948 0.707797 0.583478C1.03987 0.256008 1.49023 0.072073 1.95979 0.0721356L2.84504 0.0722538L2.84422 6.18466L5.05751 4.87516L7.27045 6.18526L7.27127 0.0728444L12.5827 0.0735531C13.0523 0.0736157 13.5026 0.257671 13.8346 0.58523C14.1666 0.912788 14.3531 1.35702 14.353 1.82019L14.352 9.27733L13.0242 8.56113L4.45444 13.1705ZM17.8925 13.1723L13.024 10.552L8.15476 13.171L13.0233 15.7912L17.8925 13.1723ZM9.92501 14.9962L9.92478 16.7426L13.0229 18.4108L16.1215 16.7434L16.1217 14.997L13.0232 16.6644L9.92501 14.9962Z" fill="white"/>
</svg>
