<svg width="15" height="15" viewBox="0 0 15 15" fill="none" xmlns="http://www.w3.org/2000/svg">
<path d="M7.63233 1.44095C4.46916 1.44053 1.9016 4.0074 1.90118 7.17057C1.90076 10.3337 4.46763 12.9013 7.6308 12.9017C10.794 12.9021 13.3615 10.3353 13.362 7.1721C13.3624 4.00893 10.7955 1.44137 7.63233 1.44095ZM7.63096 11.7556C5.10386 11.7553 3.04692 9.69782 3.04726 7.17072C3.0476 4.64362 5.10508 2.58669 7.63218 2.58703C10.1593 2.58736 12.2162 4.64485 12.2159 7.17195C12.2155 9.69905 10.1581 11.756 7.63096 11.7556ZM4.47944 10.3226L8.78322 8.3233L10.7837 4.02004L6.47991 6.01937L4.47944 10.3226ZM7.63165 6.54099C7.98121 6.54104 8.26196 6.82187 8.26191 7.17142C8.26186 7.52097 7.98104 7.80172 7.63148 7.80168C7.28193 7.80163 7.00118 7.52081 7.00123 7.17125C7.00127 6.8217 7.2821 6.54095 7.63165 6.54099Z" fill="white"/>
</svg>
