<svg width="26" height="26" viewBox="0 0 26 26" fill="none" xmlns="http://www.w3.org/2000/svg">
<rect x="0.832868" y="0.577207" width="24.6407" height="24.6407" rx="2.00564" stroke="white" stroke-opacity="0.1" stroke-width="0.573039"/>
<path d="M18.8819 12.9C18.8824 9.73683 16.3155 7.16928 13.1523 7.16886C9.98915 7.16843 7.42159 9.7353 7.42117 12.8985C7.4208 15.672 9.39175 17.9816 12.0047 18.5149L12.0053 14.6182L10.8592 14.6181L10.8594 12.8989L12.0055 12.8991L12.0057 11.4665C12.0058 10.3605 12.9056 9.46098 14.0116 9.46112L15.4442 9.46132L15.4439 11.1804L14.2979 11.1803C13.9827 11.1802 13.7248 11.4381 13.7247 11.7532L13.7246 12.8993L15.4437 12.8995L15.4435 14.6187L13.7244 14.6184L13.7238 18.6011C16.6177 18.3149 18.8815 15.8741 18.8819 12.9Z" fill="white"/>
</svg>
