<svg width="26" height="26" viewBox="0 0 26 26" fill="none" xmlns="http://www.w3.org/2000/svg">
<rect x="0.65257" y="0.568662" width="24.6407" height="24.6407" rx="2.00564" stroke="white" stroke-opacity="0.1" stroke-width="0.573039"/>
<path fill-rule="evenodd" clip-rule="evenodd" d="M10.1068 7.15993C8.5244 7.15972 7.24144 8.44233 7.24123 10.0247L7.24046 15.7551C7.24025 17.3375 8.52287 18.6205 10.1053 18.6207L15.8357 18.6215C17.4181 18.6217 18.701 17.3391 18.7012 15.7567L18.702 10.0263C18.7022 8.44387 17.4196 7.1609 15.8372 7.16069L10.1068 7.15993ZM16.4098 10.026C16.7263 10.026 16.9829 9.76948 16.9829 9.453C16.983 9.13652 16.7265 8.87992 16.41 8.87988C16.0935 8.87984 15.8369 9.13636 15.8369 9.45284C15.8368 9.76932 16.0934 10.0259 16.4098 10.026ZM15.8364 12.8911C15.8362 14.4735 14.5532 15.7561 12.9708 15.7559C11.3884 15.7557 10.1058 14.4727 10.106 12.8903C10.1062 11.3079 11.3892 10.0253 12.9716 10.0255C14.554 10.0257 15.8366 11.3087 15.8364 12.8911ZM12.971 14.6098C13.9204 14.6099 14.6902 13.8404 14.6903 12.8909C14.6905 11.9415 13.9209 11.1717 12.9714 11.1716C12.022 11.1715 11.2522 11.941 11.2521 12.8905C11.252 13.8399 12.0215 14.6097 12.971 14.6098Z" fill="white"/>
</svg>
