<svg width="55" height="9" viewBox="0 0 55 9" fill="none" xmlns="http://www.w3.org/2000/svg">
<path d="M5.30324 1.05029L7.15988 1.05054L7.15893 8.17914L5.30229 8.17889L5.30272 4.94695L2.17393 4.94654L2.1735 8.17847L0.316852 8.17823L0.317803 1.04963L2.17445 1.04987L2.17402 4.27035L5.30281 4.27077L5.30324 1.05029ZM12.9782 7.14845L12.9787 3.65291C12.9787 3.50774 12.9558 3.41223 12.9099 3.36638C12.8641 3.32053 12.7686 3.2976 12.6234 3.29758L10.9845 3.29736C10.8317 3.29734 10.7324 3.32025 10.6865 3.36608C10.6483 3.41192 10.6292 3.50743 10.6292 3.6526L10.6287 7.14813C10.6287 7.30094 10.6478 7.40027 10.686 7.44612C10.7318 7.48433 10.8312 7.50344 10.984 7.50346L12.6229 7.50368C12.768 7.5037 12.8635 7.48461 12.9094 7.44642C12.9552 7.40058 12.9782 7.30126 12.9782 7.14845ZM9.76978 2.62101L13.8383 2.62156C14.4419 2.62164 14.7437 2.92348 14.7436 3.52708L14.7431 7.27475C14.743 7.87835 14.4412 8.18011 13.8376 8.18003L9.76903 8.17949C9.16543 8.17941 8.86367 7.87757 8.86375 7.27396L8.86425 3.52629C8.86433 2.92269 9.16617 2.62093 9.76978 2.62101ZM18.2324 8.18062L16.4559 8.18038L16.457 0.513123L18.2334 0.51336L18.2324 8.18062ZM24.0584 7.14992L24.0589 3.65439C24.0589 3.50922 24.036 3.41371 23.9902 3.36786C23.9443 3.32201 23.8488 3.29908 23.7037 3.29906L22.0648 3.29884C21.912 3.29882 21.8126 3.32173 21.7668 3.36756C21.7286 3.4134 21.7095 3.50891 21.7094 3.65407L21.709 7.14961C21.7089 7.30242 21.728 7.40175 21.7662 7.4476C21.8121 7.48581 21.9114 7.50492 22.0642 7.50494L23.7031 7.50516C23.8483 7.50518 23.9438 7.48609 23.9896 7.44789C24.0355 7.40206 24.0584 7.30273 24.0584 7.14992ZM20.85 2.62249L24.9186 2.62303C25.5222 2.62311 25.8239 2.92495 25.8239 3.52856L25.8234 7.27623C25.8233 7.87983 25.5214 8.18159 24.9178 8.18151L20.8493 8.18096C20.2457 8.18088 19.9439 7.87904 19.944 7.27544L19.9445 3.52777C19.9446 2.92417 20.2464 2.62241 20.85 2.62249Z" fill="#3DDEED"/>
<path d="M33.7371 3.33478L31.8805 3.33453L31.8806 2.08531C31.8807 1.9325 31.8577 1.83699 31.8119 1.79878C31.7737 1.75293 31.6782 1.73 31.5254 1.72998L29.6573 1.72973C29.5121 1.72971 29.4166 1.75262 29.3708 1.79845C29.3249 1.83665 29.302 1.93215 29.302 2.08496L29.3013 7.15062C29.3013 7.30343 29.3242 7.40276 29.37 7.44861C29.4158 7.48682 29.5113 7.50594 29.6565 7.50595L31.5361 7.50621C31.6813 7.50622 31.7768 7.48714 31.8226 7.44894C31.8685 7.4031 31.8914 7.30378 31.8914 7.15097L31.8917 5.19118L30.4935 5.19099L30.4936 4.5148L33.737 4.51524L33.7366 7.27728C33.7365 7.88088 33.4347 8.18264 32.8311 8.18256L28.3499 8.18197C27.7463 8.18189 27.4445 7.88004 27.4446 7.27644L27.4453 1.95865C27.4454 1.35505 27.7472 1.05329 28.3508 1.05337L32.832 1.05396C33.4356 1.05404 33.7374 1.35588 33.7373 1.95949L33.7371 3.33478ZM37.3863 7.50699L38.9335 7.50719C39.2085 7.50723 39.3461 7.385 39.3461 7.1405L39.3466 3.66789C39.3466 3.42339 39.2091 3.30113 38.934 3.30109L37.3868 3.30088C37.234 3.30086 37.1347 3.32377 37.0888 3.36961C37.0506 3.41545 37.0315 3.51095 37.0315 3.65612L37.031 7.15165C37.031 7.30446 37.0501 7.40379 37.0883 7.44964C37.1341 7.48785 37.2335 7.50697 37.3863 7.50699ZM39.3467 2.62496L41.1117 2.62519L41.1109 8.18367L39.346 8.18343L39.346 7.80523C39.2543 8.05735 39.0365 8.18339 38.6927 8.18335L36.1713 8.18301C35.5677 8.18293 35.266 7.88109 35.2661 7.27749L35.2666 3.52982C35.2666 2.92621 35.5685 2.62445 36.1721 2.62454L38.6934 2.62487C39.0373 2.62492 39.255 2.75102 39.3467 3.00316L39.3467 2.62496ZM47.5906 7.50835L47.5905 8.18453L42.4446 8.18385L42.4447 7.50766L45.6199 3.30198L42.6171 3.30158L42.6172 2.6254L47.5224 2.62605L47.5224 3.30224L44.3128 7.50791L47.5906 7.50835ZM50.6074 4.99884L53.0829 4.99917L53.0831 3.65826C53.0831 3.51309 53.0602 3.41758 53.0144 3.37173C52.9762 3.32588 52.8807 3.30295 52.7279 3.30293L50.9629 3.30269C50.8101 3.30267 50.7108 3.32558 50.6649 3.37142C50.6267 3.41726 50.6076 3.51276 50.6076 3.65793L50.6074 4.99884ZM49.7482 2.62635L53.897 2.6269C54.5006 2.62698 54.8023 2.92882 54.8022 3.53242L54.802 5.67559L50.6073 5.67503L50.6071 7.15347C50.6071 7.30628 50.6262 7.40561 50.6644 7.45145C50.7102 7.48966 50.8095 7.50878 50.9624 7.5088L52.7044 7.50903C52.8572 7.50905 52.9527 7.48996 52.9909 7.45176C53.0368 7.40593 53.0597 7.3066 53.0597 7.15379L53.0598 6.47761L54.7789 6.47784L54.7788 7.28009C54.7787 7.88369 54.4769 8.18545 53.8733 8.18537L49.7474 8.18482C49.1438 8.18474 48.8421 7.8829 48.8421 7.2793L48.8426 3.53163C48.8427 2.92803 49.1446 2.62627 49.7482 2.62635Z" fill="white"/>
</svg>
