<svg width="20" height="19" viewBox="0 0 20 19" fill="none" xmlns="http://www.w3.org/2000/svg">
<path d="M16.1568 3.87963C16.4593 4.23725 16.7169 4.63336 16.9213 5.05973C16.7512 5.23052 16.549 5.36598 16.3263 5.45831C16.1036 5.55065 15.8649 5.59804 15.6238 5.59776C15.2962 5.59824 14.9744 5.51047 14.6923 5.34366L16.1568 3.87963ZM15.5086 3.2304L14.0442 4.69535C13.8368 4.34518 13.7521 3.93579 13.8037 3.53206C13.8552 3.12833 14.04 2.75334 14.3287 2.4665C14.755 2.67102 15.1511 2.92871 15.5086 3.2304ZM17.4573 7.43172C17.4578 6.93924 17.3922 6.44891 17.2622 5.97389C16.8037 6.31307 16.2371 6.5147 15.6237 6.51462C15.0522 6.51552 14.4946 6.33751 14.0294 6.00555L13.0629 6.97271L16.5492 10.46C17.1224 9.59089 17.4572 8.5503 17.4573 7.43172ZM12.8735 3.76367C12.8736 3.14937 13.0745 2.58278 13.4147 2.12531C12.9397 1.99525 12.4494 1.9295 11.9569 1.92982C10.8801 1.92778 9.82666 2.24338 8.92837 2.83711L12.4147 6.3244L13.3812 5.35724C13.05 4.89199 12.8724 4.33481 12.8735 3.76367ZM11.6874 8.34782C12.7675 9.55213 13.4683 11.0483 13.7021 12.6491C14.5703 12.3579 15.3523 11.8548 15.977 11.1852L12.4146 7.62084L11.6874 8.34782ZM11.7664 6.97253L11.0393 7.69859C9.83548 6.61832 8.3398 5.91712 6.73944 5.68276C7.03096 4.81489 7.53433 4.03343 8.20397 3.40913L11.7664 6.97253ZM4.16295 6.51309C3.7982 6.51304 3.44837 6.65789 3.19042 6.91577C2.93247 7.17366 2.78752 7.52345 2.78747 7.8882L2.78729 9.26349C2.78703 11.2088 3.55956 13.0746 4.93494 14.4503C6.31031 15.8261 8.17587 16.5991 10.1212 16.5994L11.4965 16.5995C11.8612 16.5996 12.2111 16.4547 12.469 16.1969C12.727 15.939 12.8719 15.5892 12.872 15.2244L12.8722 13.8491C12.8724 11.9038 12.0999 10.038 10.7245 8.6623C9.34913 7.28656 7.48358 6.51353 5.53824 6.51327L4.16295 6.51309ZM6.58846 10.3147C6.63105 10.272 6.68164 10.2382 6.73734 10.2151C6.79304 10.192 6.85275 10.1801 6.91305 10.1801C6.97334 10.1801 7.03305 10.192 7.08874 10.2151C7.14443 10.2382 7.19502 10.2721 7.2376 10.3148L9.07107 12.1488C9.15714 12.2349 9.20549 12.3516 9.20547 12.4734C9.20546 12.5951 9.15708 12.7118 9.07099 12.7979C8.9849 12.884 8.86814 12.9323 8.7464 12.9323C8.62466 12.9323 8.50792 12.8839 8.42185 12.7978L6.58837 10.9639C6.54569 10.9213 6.51182 10.8707 6.48872 10.815C6.46561 10.7593 6.45373 10.6996 6.45373 10.6393C6.45374 10.579 6.46565 10.5193 6.48876 10.4636C6.51188 10.4079 6.54576 10.3573 6.58846 10.3147Z" fill="white"/>
</svg>
