<svg width="26" height="26" viewBox="0 0 26 26" fill="none" xmlns="http://www.w3.org/2000/svg">
<rect x="0.562482" y="0.56439" width="24.6407" height="24.6407" rx="2.00564" stroke="white" stroke-opacity="0.1" stroke-width="0.573039"/>
<path d="M14.7647 8.30233C13.5592 8.30217 12.5817 9.32827 12.5815 10.5942C12.5815 10.7855 12.6038 10.9713 12.6458 11.1489C11.4866 11.1488 9.7406 10.9142 8.28259 9.45305C8.0887 9.25875 7.73113 9.38859 7.74454 9.66274C7.96006 14.0677 9.84638 15.3529 10.8179 15.4329C10.1904 16.0525 9.27911 16.5414 8.36209 16.7608C8.12008 16.8187 8.06026 17.0836 8.29689 17.1606C8.95301 17.3741 9.89217 17.4564 10.3977 17.4704C13.9739 17.4708 16.881 14.4611 16.9462 10.7222C17.4158 10.4169 17.7166 9.75394 17.8857 9.28431C17.9269 9.16993 17.7394 9.03663 17.6272 9.08334C17.2764 9.22931 16.8311 9.26387 16.4518 9.14023C16.0516 8.62871 15.4445 8.30242 14.7647 8.30233Z" fill="white"/>
</svg>
